<svg xmlns="http://www.w3.org/2000/svg" viewBox="0 0 100 100">
  <path fill="black" d="M 50,5 C 25,5 5,25 5,50 L 5,50 C 5,75 25,95 50,95 L 50,95 C 75,95 95,75 95,50 L 95,50 C 95,25 75,5 50,5 Z M 50,15 C 65,15 75,20 80,30 L 80,30 C 85,40 80,50 70,55 L 70,55 C 60,60 55,65 55,75 L 55,75 C 55,85 60,90 70,90 L 70,90 C 80,90 85,85 90,75 L 90,70 A 5,5 0 0 1 100,70 L 100,75 C 100,90 90,100 70,100 L 70,100 C 50,100 40,90 40,75 L 40,75 C 40,60 45,55 55,50 L 55,50 C 65,45 70,40 70,30 L 70,30 C 70,20 65,15 50,15 L 50,15 C 35,15 30,20 30,30 L 30,35 A 5,5 0 0 1 20,35 L 20,30 C 20,20 30,10 50,10 Z"/>
</svg>
